<svg xmlns="http://www.w3.org/2000/svg" xmlns:xlink="http://www.w3.org/1999/xlink" width="500" zoomAndPan="magnify" viewBox="0 0 375 374.999991" height="500" preserveAspectRatio="xMidYMid meet" version="1.0"><defs><g><g id="id1"/></g><clipPath id="id2"><path d="M 88.21875 72.414062 L 250.96875 72.414062 L 250.96875 235.164062 L 88.21875 235.164062 Z M 88.21875 72.414062 " clip-rule="nonzero"/></clipPath></defs><g clip-path="url(#id2)"><path fill="rgb(95.289612%, 76.469421%, 9.01947%)" d="M 169.59375 72.414062 C 124.632812 72.414062 88.21875 108.832031 88.21875 153.789062 C 88.21875 198.75 124.632812 235.164062 169.59375 235.164062 C 214.554688 235.164062 250.96875 198.75 250.96875 153.789062 C 250.96875 108.832031 214.554688 72.414062 169.59375 72.414062 Z M 169.59375 218.890625 C 133.625 218.890625 104.492188 189.757812 104.492188 153.789062 C 104.492188 117.824219 133.625 88.691406 169.59375 88.691406 C 205.5625 88.691406 234.691406 117.824219 234.691406 153.789062 C 234.691406 189.757812 205.5625 218.890625 169.59375 218.890625 Z M 169.59375 218.890625 " fill-opacity="1" fill-rule="nonzero"/></g><g fill="rgb(95.289612%, 76.469421%, 9.01947%)" fill-opacity="1"><g transform="translate(122.122086, 195.41006)"><g><path d="M 69.5625 0 C 68.019531 0 67.066406 -0.722656 66.703125 -2.171875 L 63.984375 -11.984375 C 63.796875 -12.617188 63.382812 -12.9375 62.75 -12.9375 L 34.4375 -12.9375 C 33.800781 -12.9375 33.394531 -12.617188 33.21875 -11.984375 L 30.484375 -2.171875 C 30.128906 -0.722656 29.179688 0 27.640625 0 L 5.578125 0 C 4.671875 0 4.015625 -0.269531 3.609375 -0.8125 C 3.203125 -1.363281 3.132812 -2.09375 3.40625 -3 L 31.71875 -93.109375 C 32.164062 -94.554688 33.117188 -95.28125 34.578125 -95.28125 L 62.625 -95.28125 C 64.070312 -95.28125 65.019531 -94.554688 65.46875 -93.109375 L 93.796875 -3 C 93.878906 -2.726562 93.921875 -2.410156 93.921875 -2.046875 C 93.921875 -0.679688 93.148438 0 91.609375 0 Z M 39.203125 -33.484375 C 39.203125 -32.847656 39.519531 -32.53125 40.15625 -32.53125 L 57.03125 -32.53125 C 57.394531 -32.53125 57.664062 -32.644531 57.84375 -32.875 C 58.03125 -33.101562 58.078125 -33.398438 57.984375 -33.765625 L 49.28125 -65.203125 C 49.1875 -65.660156 48.976562 -65.890625 48.65625 -65.890625 C 48.34375 -65.890625 48.097656 -65.660156 47.921875 -65.203125 L 39.203125 -33.765625 Z M 39.203125 -33.484375 "/></g></g></g><path stroke-linecap="round" transform="matrix(-12.592592, -0.000000000000012727, 0.000000000000012886, -12.749999, 151.073695, 146.135074)" fill="none" stroke-linejoin="miter" d="M 0.500004 -0.000129031 L 1.585092 -0.000129031 " stroke="rgb(95.289612%, 76.469421%, 9.01947%)" stroke-width="1" stroke-opacity="1" stroke-miterlimit="4"/><path stroke-linecap="round" transform="matrix(-12.70785, 0.0275731, -0.0276645, -12.749969, 156.356245, 127.931212)" fill="none" stroke-linejoin="miter" d="M 0.499875 -0.0000249233 L 1.447555 -0.00012008 " stroke="rgb(95.289612%, 76.469421%, 9.01947%)" stroke-width="1" stroke-opacity="1" stroke-miterlimit="4"/><path stroke-linecap="round" transform="matrix(-12.592592, -0.000000000000012727, 0.000000000000012886, -12.749999, 214.078116, 146.135074)" fill="none" stroke-linejoin="miter" d="M 0.500045 -0.000129031 L 1.585133 -0.000129031 " stroke="rgb(95.289612%, 76.469421%, 9.01947%)" stroke-width="1" stroke-opacity="1" stroke-miterlimit="4"/><path stroke-linecap="round" transform="matrix(-12.70785, 0.0275731, -0.0276645, -12.749969, 209.382267, 127.931212)" fill="none" stroke-linejoin="miter" d="M 0.500079 -0.0000244836 L 1.447758 -0.000119641 " stroke="rgb(95.289612%, 76.469421%, 9.01947%)" stroke-width="1" stroke-opacity="1" stroke-miterlimit="4"/></svg>